<svg xmlns="http://www.w3.org/2000/svg" width="720" height="260" viewBox="0 0 720 260" role="img" aria-labelledby="title desc" font-family="-apple-system, BlinkMacSystemFont, Segoe UI, sans-serif">
  <title id="title">OSS footprint category breakdown</title>
  <desc id="desc">A donut chart showing GitHub interactions by project category.</desc>
  <rect width="720" height="260" rx="18" fill="#ffffff" />
  <rect x="0.5" y="0.5" width="719" height="259" rx="17.5" fill="none" stroke="#e5e7eb" />
  <text x="34" y="38" font-size="18" font-weight="700" fill="#111827">OSS Footprint</text>
  <g transform="translate(34 60)">
    <circle cx="84" cy="84" r="58" fill="none" stroke="#f3f4f6" stroke-width="28" />
    <circle cx="84" cy="84" r="58" fill="none" stroke="#2563eb" stroke-width="28" stroke-dasharray="296.94 67.49" stroke-dashoffset="25.00" stroke-linecap="butt" transform="rotate(-90 84 84)" />
    <circle cx="84" cy="84" r="58" fill="none" stroke="#16a34a" stroke-width="28" stroke-dasharray="40.49 323.93" stroke-dashoffset="-271.94" stroke-linecap="butt" transform="rotate(-90 84 84)" />
    <circle cx="84" cy="84" r="58" fill="none" stroke="#dc2626" stroke-width="28" stroke-dasharray="26.99 337.43" stroke-dashoffset="-312.43" stroke-linecap="butt" transform="rotate(-90 84 84)" />
    <circle cx="84" cy="84" r="42" fill="#ffffff" />
    <text x="84" y="80" text-anchor="middle" font-size="24" font-weight="800" fill="#111827">27</text>
    <text x="84" y="100" text-anchor="middle" font-size="12" fill="#6b7280">interactions</text>
  </g>
  <g>
<circle cx="244" cy="87" r="6" fill="#2563eb" />
<text x="260" y="92" font-size="15" font-weight="600" fill="#111827">AI harness</text>
<text x="548" y="92" font-size="15" font-weight="700" text-anchor="end" fill="#111827">82%</text>
<text x="260" y="110" font-size="12" fill="#6b7280">22 interactions across 6 repos</text>
<circle cx="244" cy="131" r="6" fill="#16a34a" />
<text x="260" y="136" font-size="15" font-weight="600" fill="#111827">Commerce platforms</text>
<text x="548" y="136" font-size="15" font-weight="700" text-anchor="end" fill="#111827">11%</text>
<text x="260" y="154" font-size="12" fill="#6b7280">3 interactions across 1 repo</text>
<circle cx="244" cy="175" r="6" fill="#dc2626" />
<text x="260" y="180" font-size="15" font-weight="600" fill="#111827">Frontend libraries</text>
<text x="548" y="180" font-size="15" font-weight="700" text-anchor="end" fill="#111827">7%</text>
<text x="260" y="198" font-size="12" fill="#6b7280">2 interactions across 1 repo</text>
  </g>
</svg>
